HIERARCHY
ROOT Hips
{
	OFFSET 0.00000 0.00000 0.00000
	CHANNELS 6 Xposition Yposition Zposition Zrotation Yrotation Xrotation 
	JOINT LHipJoint
	{
		OFFSET 0 0 0
		CHANNELS 3 Zrotation Yrotation Xrotation
		JOINT LeftHip
		{
			OFFSET 1.54859 -1.61379 0.86856
			CHANNELS 3 Zrotation Yrotation Xrotation
			JOINT LeftKnee
			{
				OFFSET 2.25087 -6.18423 0.00000
				CHANNELS 3 Zrotation Yrotation Xrotation
				JOINT LeftAnkle
				{
					OFFSET 2.40328 -6.60297 0.00000
					CHANNELS 3 Zrotation Yrotation Xrotation
					JOINT LeftToe
					{
						OFFSET 0.17435 -0.47901 2.02453
						CHANNELS 3 Zrotation Yrotation Xrotation
						End Site
						{
							OFFSET 0.00000 -0.00000 1.04844
						}
					}
				}
			}
		}
	}
	JOINT RHipJoint
	{
		OFFSET 0 0 0
		CHANNELS 3 Zrotation Yrotation Xrotation
		JOINT RightHip
		{
			OFFSET -1.54669 -1.61379 0.86856
			CHANNELS 3 Zrotation Yrotation Xrotation
			JOINT RightKnee
			{
				OFFSET -2.28132 -6.26789 0.00000
				CHANNELS 3 Zrotation Yrotation Xrotation
				JOINT RightAnkle
				{
					OFFSET -2.51636 -6.91365 0.00000
					CHANNELS 3 Zrotation Yrotation Xrotation
					JOINT RightToe
					{
						OFFSET -0.15124 -0.41552 2.21090
						CHANNELS 3 Zrotation Yrotation Xrotation
						End Site
						{
							OFFSET -0.00000 -0.00000 1.13399
						}
					}
				}
			}
		}
	}
	JOINT lowerback
	{
		OFFSET 0 0 0
		CHANNELS 3 Zrotation Yrotation Xrotation
		JOINT Chest
		{
			OFFSET -0.04287 2.26161 -0.25690
			CHANNELS 3 Zrotation Yrotation Xrotation
			JOINT Chest2
			{
				OFFSET 0.02248 2.28395 -0.10140
				CHANNELS 3 Zrotation Yrotation Xrotation
				JOINT lowerneck
				{
					OFFSET 0 0 0
					CHANNELS 3 Zrotation Yrotation Xrotation
					JOINT Neck
					{
						OFFSET -0.11644 1.38496 0.11345
						CHANNELS 3 Zrotation Yrotation Xrotation
						JOINT Head
						{
							OFFSET 0.29383 1.36600 0.06642
							CHANNELS 3 Zrotation Yrotation Xrotation
							End Site
							{
								OFFSET 0.11075 1.41395 -0.00294
							}
						}
					}
				}
				JOINT LeftCollar
				{
					OFFSET 0 0 0
					CHANNELS 3 Zrotation Yrotation Xrotation
					JOINT LeftShoulder
					{
						OFFSET 3.51628 0.59542 -0.30346
CHANNELS 3 Zrotation Xrotation Yrotation
						JOINT LeftElbow
						{
OFFSET 0 -4.764050 0.000000
CHANNELS 3 Zrotation Xrotation Yrotation
							JOINT LeftWrist
							{
OFFSET 0 -3.137590 -0.000000
CHANNELS 3 Zrotation Xrotation Yrotation
								JOINT lhand
								{
									OFFSET 0 0 0
CHANNELS 3 Zrotation Xrotation Yrotation
									JOINT LFingers
									{
OFFSET 0 -0.732260 -0.000000
CHANNELS 3 Zrotation Xrotation Yrotation
										End Site
										{
OFFSET 0 -0.590370 -0.000000
										}
									}
								}
								JOINT LThumb
								{
OFFSET 0 0.000000 0.000000
CHANNELS 3 Zrotation Xrotation Yrotation
									End Site
									{
OFFSET 0 -0.599380 0.599380
									}
								}
							}
						}
					}
				}
				JOINT RightCollar
				{
					OFFSET 0 0 0
					CHANNELS 3 Zrotation Yrotation Xrotation
					JOINT RightShoulder
					{
						OFFSET -3.30990 0.84213 -0.36430
CHANNELS 3 Zrotation Xrotation Yrotation
						JOINT RightElbow
						{
OFFSET 0 -5.101610 -0.000000
CHANNELS 3 Zrotation Xrotation Yrotation
							JOINT RightWrist
							{
OFFSET 0 -3.232670 -0.000000
CHANNELS 3 Zrotation Xrotation Yrotation
								JOINT rhand
								{
									OFFSET 0 0 0
CHANNELS 3 Zrotation Xrotation Yrotation
									JOINT RFingers
									{
OFFSET 0 -0.702000 -0.000000
CHANNELS 3 Zrotation Xrotation Yrotation
										End Site
										{
OFFSET 0 -0.565970 -0.000000
										}
									}
								}
								JOINT RThumb
								{
OFFSET 0 0.000000 0.000000
CHANNELS 3 Zrotation Xrotation Yrotation
									End Site
									{
OFFSET 0 -0.574610 0.574610
									}
								}
							}
						}
					}
				}
			}
		}
	}
}
MOTION
Frames: 12
Frame Time: .0083333
-16.5695 14.8678 -14.0241 22.2497 71.4225 44.2431 0.0000 0.0000 0.0000 -24.7847 6.2198 16.1387 0.3092 3.5746 9.8828 0.9112 1.2119 17.6724 2.7096 -10.2095 -29.6578 0.0000 0.0000 0.0000 8.4318 21.1672 -69.4942 -14.7064 -19.3144 74.3507 -1.0328 -1.4623 -19.7805 -1.1736 6.8762 -19.3492 -8.0211 -4.8837 15.7399 2.2079 -7.0615 7.4322 7.8384 -3.6704 0.4945 -12.6313 -3.2294 -4.3889 16.7436 -2.0023 -16.2322 7.4538 -0.8830 -3.6085 -0.0000 0.0000 0.0000 6.518 -9.3561 -43.1841 58.8124 -55.9851 33.3548 30.1588 -12.836 -14.2395 0.0 0.0 0.0 -7.1250 0.0 0.0 2.5475 46.3211 -0.0831 -0.0000 0.0000 0.0000 -2.3741 -13.0028 -6.3135 -106.6361 -58.928 -74.3554 -30.0944 -64.2877 -21.9379 0.0 0.0 0.0 7.1250 0.0 -0.0 -0.7903 5.019 -0.7182
-16.1292 14.8999 -13.9562 22.6628 70.7219 44.5058 0.0000 0.0000 0.0000 -25.5083 7.0751 18.7038 0.1699 2.6550 7.3197 1.0130 3.1555 18.2272 2.9304 -10.5815 -30.8811 0.0000 0.0000 0.0000 8.8701 20.9903 -69.6065 -13.7078 -19.0230 71.3101 -1.0711 0.1301 -19.5278 -0.8083 5.7377 -16.0254 -7.7968 -5.0978 15.5119 2.1056 -7.2991 7.4645 7.6005 -3.7886 0.6468 -12.0698 -2.9035 -4.6232 15.9732 -1.5927 -16.4050 7.1010 -0.6674 -3.7144 0.0000 -0.0000 0.0000 7.1234 -7.9024 -43.218 57.2855 -55.5421 32.0925 29.4162 -12.8709 -14.6266 0.0 0.0 0.0 -7.1250 0.0 0.0 1.8003 46.6501 -0.0733 0.0000 -0.0000 0.0000 -1.6013 -13.1189 -5.7939 -112.1702 -58.0588 -79.0748 -29.6198 -60.5806 -20.9357 0.0 0.0 0.0 7.1250 0.0 -0.0 -0.6363 6.2274 -0.5636
-15.6984 14.9270 -13.8871 23.7640 70.0874 45.4992 0.0000 0.0000 0.0000 -26.3726 7.5423 20.8382 0.0985 2.0243 5.5727 1.0378 5.6294 18.1990 2.5900 -9.9998 -28.9759 0.0000 0.0000 0.0000 9.3814 20.4097 -69.7531 -12.7755 -18.6996 68.4269 -1.0481 1.0604 -19.0276 -0.7394 5.4932 -15.3209 -8.8554 -5.1145 16.0948 3.0858 -7.5276 6.9229 9.3801 -3.9247 0.1112 -12.5845 -2.5265 -4.9778 14.4145 -1.2476 -16.1917 6.6662 -0.3908 -3.6860 0.0000 -0.0000 0.0000 5.4813 -5.7832 -43.2278 55.5167 -54.9918 30.6388 28.8817 -12.3825 -14.7455 0.0 0.0 0.0 -7.1250 0.0 0.0 1.2756 46.7055 -0.0537 0.0000 -0.0000 0.0000 -2.9161 -13.2186 -5.1103 -117.1153 -57.0309 -83.2484 -29.6011 -57.2431 -19.931 0.0 0.0 0.0 7.1250 0.0 -0.0 -0.7606 7.3435 -0.6572
-15.2615 14.9366 -13.8138 24.6898 69.2940 46.1444 0.0000 0.0000 0.0000 -27.3745 7.9370 22.2799 0.0962 2.0002 5.5061 0.9712 7.3574 17.6101 2.1535 -9.1788 -26.3562 0.0000 0.0000 0.0000 10.0343 19.9086 -69.5572 -11.9291 -18.3605 65.7641 -1.0172 1.2000 -18.6999 -0.9318 6.1490 -17.2175 -8.2125 -5.4549 15.3619 2.2494 -7.8235 7.3314 8.0265 -4.0740 0.7698 -11.4178 -2.1445 -4.9649 14.0215 -0.7118 -16.7140 6.3452 -0.1684 -3.9347 0.0000 -0.0000 0.0000 7.1852 -4.4219 -43.5665 53.5941 -54.3461 29.0702 28.8944 -12.5794 -14.9617 0.0 0.0 0.0 -7.1250 0.0 0.0 1.2633 46.9496 -0.0608 0.0000 -0.0000 0.0000 -0.9755 -14.2884 -3.9284 -121.7713 -55.8192 -87.1285 -29.7763 -53.6141 -19.3171 0.0 0.0 0.0 7.1250 0.0 -0.0 -0.9531 7.9909 -0.8115
-14.8089 14.9282 -13.7402 24.6541 68.1874 45.5114 0.0000 0.0000 0.0000 -28.4652 8.6198 22.9567 0.1670 2.6327 7.2577 0.8739 7.8081 16.7547 1.9993 -8.8645 -25.3725 0.0000 0.0000 0.0000 11.0214 19.6279 -68.7156 -11.1940 -18.0287 63.4100 -1.0082 1.5365 -18.5255 -0.9925 6.3406 -17.7760 -8.9445 -5.3535 15.5532 2.5830 -7.7915 7.4027 8.8068 -4.1027 0.9107 -11.5667 -1.7410 -5.2442 13.1216 -0.2217 -16.8352 6.0739 0.1348 -4.0106 -0.0000 0.0000 0.0000 6.449 -2.9042 -43.8501 51.1694 -53.4564 27.1109 28.7742 -13.1687 -15.3695 0.0 0.0 0.0 -7.1250 0.0 0.0 1.0993 47.3879 -0.0648 -0.0000 0.0000 0.0000 -1.5086 -15.3696 -2.9127 -125.5812 -54.6293 -90.2585 -28.8656 -48.9521 -18.1201 0.0 0.0 0.0 7.1250 0.0 -0.0 -0.5163 9.4915 -0.4241
-14.3832 14.9220 -13.6637 25.5893 67.3647 46.1552 0.0000 0.0000 0.0000 -29.7146 8.4170 22.6492 0.3308 3.6966 10.2247 0.8096 7.5196 16.1204 2.0781 -9.0269 -25.8796 0.0000 0.0000 0.0000 11.8103 18.9579 -68.2947 -10.5733 -17.7199 61.3880 -0.9831 1.8971 -18.1979 -0.9066 6.0675 -16.9804 -9.5669 -5.4232 15.6146 2.8141 -7.9763 7.3100 9.4348 -4.2252 0.9587 -11.3670 -1.3662 -5.3762 12.1717 0.1920 -16.8974 5.7255 0.3744 -4.0802 -0.0000 0.0000 0.0000 5.8611 -1.2272 -44.3868 48.2988 -52.2859 24.8219 29.255 -12.6641 -15.1726 0.0 0.0 0.0 -7.1250 0.0 0.0 1.5865 47.2401 -0.0877 -0.0000 0.0000 0.0000 -1.8388 -16.5052 -1.2718 -129.4095 -53.2309 -93.3536 -29.6505 -47.4184 -18.045 0.0 0.0 0.0 7.1250 0.0 -0.0 -1.0340 9.4327 -0.8507
-13.9567 14.9089 -13.5845 25.8747 66.6728 46.0948 0.0000 0.0000 0.0000 -30.2149 9.2940 21.5694 0.6195 5.0371 14.0144 0.8065 5.4321 16.0096 2.2919 -9.4492 -27.2110 0.0000 0.0000 0.0000 13.0093 18.2620 -67.5396 -10.0582 -17.4424 59.6827 -0.9458 1.8891 -17.8409 -1.0472 6.5075 -18.2642 -9.8411 -5.5177 15.6933 2.9664 -8.1474 7.2494 9.7827 -4.3250 0.9635 -10.9896 -0.9218 -5.0771 11.2085 0.6755 -17.2852 5.3493 0.6282 -4.3211 0.0000 0.0000 0.0000 5.3636 0.6799 -44.6762 45.8161 -51.1621 22.8727 29.4169 -12.5027 -15.4601 0.0 0.0 0.0 -7.1250 0.0 0.0 1.7107 47.5877 -0.1093 0.0000 0.0000 0.0000 -2.1294 -17.9028 -0.1408 -132.2632 -52.0409 -95.6219 -27.4711 -41.9498 -16.9619 0.0 0.0 0.0 7.1250 0.0 -0.0 0.2661 11.0087 0.2104
-13.5264 14.8947 -13.5018 25.7987 66.2101 45.6881 0.0000 0.0000 0.0000 -30.3539 10.2367 19.9696 1.0714 6.5800 18.4769 0.7808 2.8890 15.9663 2.6582 -10.1201 -29.3664 0.0000 0.0000 0.0000 14.4558 17.4524 -66.5127 -9.6444 -17.2050 58.2931 -0.8873 1.8804 -17.2652 -1.1509 6.8116 -19.1584 -9.7424 -5.5878 15.7293 3.0358 -8.2270 7.2624 9.8134 -4.3653 0.9734 -10.4000 -0.4665 -4.9053 10.3537 1.1913 -17.5484 4.9655 0.8860 -4.4964 -0.0000 0.0000 0.0000 5.2031 2.5025 -45.2076 43.3794 -49.9494 20.9908 29.1072 -12.1222 -16.6049 0.0 0.0 0.0 -7.1250 0.0 0.0 1.2657 48.8208 -0.1193 -0.0000 0.0000 0.0000 -2.1258 -19.4381 1.4447 -134.9499 -50.793 -97.7224 -26.7986 -38.3245 -16.7404 0.0 0.0 0.0 7.1250 0.0 -0.0 0.6872 11.3583 0.5384
-13.0969 14.8685 -13.4172 25.3785 65.7811 45.0205 0.0000 0.0000 0.0000 -30.3433 11.1613 18.1862 1.6662 8.1331 23.1190 0.7171 0.5587 15.8215 3.1979 -11.0087 -32.3093 0.0000 0.0000 0.0000 15.9096 16.7383 -65.3951 -9.3592 -17.0334 57.3243 -0.7987 1.8960 -16.3498 -1.0148 6.4091 -17.9761 -9.6087 -5.6090 15.6526 3.1785 -8.2265 7.3060 9.8812 -4.3736 1.0635 -9.8996 -0.1202 -4.8794 9.6752 1.5881 -17.7355 4.6541 1.0860 -4.6031 0.0000 -0.0000 0.0000 4.9126 4.1994 -45.844 40.8717 -48.5779 19.0903 28.3541 -11.1017 -18.4057 0.0 0.0 0.0 -7.1250 0.0 0.0 0.2359 50.6928 -0.0331 0.0000 -0.0000 0.0000 -2.2169 -21.1807 3.1202 -137.1954 -49.6465 -99.4483 -26.1583 -34.2776 -16.6647 0.0 0.0 0.0 7.1250 0.0 -0.0 1.1032 11.5388 0.8604
-12.6706 14.8183 -13.3333 24.7801 65.3498 44.1433 0.0000 0.0000 0.0000 -30.2211 11.9562 16.4750 2.4104 9.6731 27.9245 0.6209 -0.6110 15.1202 3.2340 -11.0645 -32.4977 0.0000 0.0000 0.0000 17.3379 16.0920 -64.1776 -9.2294 -16.9531 56.8800 -0.6921 1.7917 -15.2072 -0.5465 4.7359 -13.1568 -9.5976 -5.6016 15.5947 3.4866 -8.2019 7.3744 10.1981 -4.3848 1.2152 -9.7045 0.0911 -4.9190 9.1665 1.8331 -18.0105 4.4549 1.2245 -4.7080 0.0000 -0.0000 0.0000 4.1249 5.8911 -46.5127 38.3534 -47.0635 17.2239 28.1338 -10.2952 -19.6975 0.0 0.0 0.0 -7.1250 0.0 0.0 -0.2327 52.0752 0.0405 0.0000 -0.0000 0.0000 -2.6645 -23.2553 5.028 -138.8648 -48.7283 -100.7119 -25.6632 -29.6493 -16.3196 0.0 0.0 0.0 7.1250 0.0 -0.0 1.4003 11.9882 1.0793
-12.2442 14.7627 -13.2524 24.8473 64.9629 43.7822 0.0000 0.0000 0.0000 -30.1841 12.4558 14.8671 3.3179 11.1927 32.9324 0.5667 -0.2218 14.3061 2.3101 -9.4842 -27.3221 0.0000 0.0000 0.0000 18.5124 15.0598 -62.9398 -9.3319 -17.0166 57.2309 -0.6209 1.6055 -14.4221 -0.0095 -0.6295 1.7300 -9.0398 -5.7346 15.4038 3.1454 -8.2796 7.5649 9.4787 -4.4061 1.3879 -8.7022 0.3273 -4.8271 8.7310 2.1054 -18.2235 4.1385 1.3173 -4.8061 -0.0000 0.0000 0.0000 4.3493 7.5972 -47.5901 35.8851 -45.4339 15.4406 28.7745 -10.3709 -20.2172 0.0 0.0 0.0 -7.1250 0.0 0.0 0.3252 52.769 -0.0622 -0.0000 0.0000 0.0000 -2.0948 -25.2264 7.2515 -140.3638 -47.8529 -101.831 -25.5254 -24.4204 -15.7203 0.0 0.0 0.0 7.1250 0.0 -0.0 1.4409 12.6605 1.0904
-11.8152 14.7247 -13.1677 25.2433 64.6130 43.7641 0.0000 0.0000 0.0000 -30.1667 12.8788 13.0193 4.3780 12.6472 38.0616 0.5763 0.8073 14.0864 1.4407 -7.5884 -21.4708 0.0000 0.0000 0.0000 19.5370 13.7864 -61.6724 -9.6191 -17.1900 58.2076 -0.5787 -0.2448 -14.4643 -0.8597 -5.9125 16.5309 -9.5643 -5.6605 15.6822 3.7200 -8.2710 7.4400 10.4481 -4.4336 1.2943 -8.6289 0.5620 -4.8743 7.8149 2.3073 -18.3666 3.8282 1.4610 -4.8633 0.0000 -0.0000 0.0000 2.5915 9.1626 -47.8234 33.2802 -43.5443 13.6147 28.2 -8.8732 -21.1036 0.0 0.0 0.0 -7.1250 0.0 0.0 -0.4681 53.6288 0.0993 0.0000 -0.0000 0.0000 -3.4001 -27.2057 9.2573 -141.5617 -47.117 -102.714 -25.069 -19.1854 -15.2431 0.0 0.0 0.0 7.1250 0.0 -0.0 1.7084 13.2418 1.2722
